<?xml version="1.0" standalone="no"?>
<svg width="375" height="160" viewBox="0 0 375 160" preserveAspectRatio="xMidYMid meet" xmlns="http://www.w3.org/2000/svg" class="w-full h-auto" role="img" aria-label="Quversi Logo"><defs><style type="text/css">@import url('https://fonts.googleapis.com/css2?family=Montserrat:wght@400;700&amp;display=swap');</style><linearGradient id="gradGreen" x1="0%" y1="0%" x2="100%" y2="100%"><stop offset="0%" stop-color="#4ADE55"/><stop offset="100%" stop-color="#2E9E35"/></linearGradient><linearGradient id="gradOrbit" x1="0%" y1="0%" x2="100%" y2="100%"><stop offset="0%" stop-color="#86efac"/><stop offset="100%" stop-color="#4ade55"/></linearGradient><linearGradient id="gradBlack" x1="20%" y1="20%" x2="80%" y2="80%"><stop offset="0%" stop-color="#4a4a4a"/><stop offset="50%" stop-color="#1a1a1a"/><stop offset="100%" stop-color="#000000"/></linearGradient><linearGradient id="gradWhite" x1="10%" y1="10%" x2="90%" y2="90%"><stop offset="0%" stop-color="#ffffff"/><stop offset="100%" stop-color="#d1d5db"/></linearGradient><linearGradient id="gradTail" x1="0%" y1="0%" x2="100%" y2="100%"><stop offset="0%" stop-color="#333"/><stop offset="100%" stop-color="#000"/></linearGradient></defs><g transform="translate(10, 10)"><circle cx="60" cy="60" r="54" fill="none" stroke="url(#gradGreen)" stroke-width="12"/><path d="M 60,12 A 48,48 0 0 0 60,108 Z" fill="url(#gradBlack)"/><path d="M 60,12 A 48,48 0 0 1 60,108 Z" fill="url(#gradWhite)"/><path d="M 60,12 L 60,108" stroke="rgba(0,0,0,0.1)" stroke-width="1"/><g><line x1="86" y1="86" x2="108" y2="108" stroke="url(#gradGreen)" stroke-width="14" stroke-linecap="round"/><line x1="86" y1="86" x2="108" y2="108" stroke="url(#gradTail)" stroke-width="8" stroke-linecap="round"/></g></g><text x="130" y="92" font-family="'Montserrat', sans-serif" font-weight="700" font-size="68" fill="url(#gradGreen)" letter-spacing="-1">uvers</text><g transform="translate(329, 0)"><rect x="-6.5" y="55" width="13" height="37" fill="url(#gradGreen)" shape-rendering="geometricPrecision"/><g transform="translate(0, 35)"><g fill="none" stroke="url(#gradOrbit)" stroke-width="2.5"><ellipse rx="5.5" ry="17"/><ellipse rx="5.5" ry="17" transform="rotate(60)"/><ellipse rx="5.5" ry="17" transform="rotate(120)"/></g><circle r="3.5" fill="url(#gradGreen)"/></g></g><text x="135" y="125" font-family="'Montserrat', sans-serif" font-weight="400" font-size="24" fill="#6b7280" letter-spacing="0.5">Quantum Reversi</text></svg>